<svg aria-hidden="true" style="position: absolute; width: 0; height: 0; overflow: hidden;" version="1.1" xmlns="http://www.w3.org/2000/svg" xmlns:xlink="http://www.w3.org/1999/xlink">
<defs>
<symbol id="burger-menu-icon" viewBox="0 0 64 32">
<path fill="#bfbaba" style="fill: var(--color1, #bfbaba)" d="M0 0h64v32h-64z"></path>
<path fill="#f6f6f6" style="fill: var(--color2, #f6f6f6)" d="M-606-80h750v9394h-750z"></path>
<path fill="#e8e8e8" style="fill: var(--color3, #e8e8e8)" d="M-506-40h550c33.137 0 60 26.863 60 60v654c0 33.137-26.863 60-60 60h-550c-33.137 0-60-26.863-60-60v-654c0-33.137 26.863-60 60-60z"></path>
<path fill="none" stroke="#7e847f" style="stroke: var(--color5, #7e847f)" stroke-linejoin="round" stroke-linecap="round" stroke-miterlimit="4" stroke-width="4" d="M56 20.666h-48M56 10h-48"></path>
</symbol>
<symbol id="close-burger-menu-icon" viewBox="0 0 32 32">
<path fill="none" stroke="#f6f6f6" style="stroke: var(--color2, #f6f6f6)" stroke-linejoin="round" stroke-linecap="round" stroke-miterlimit="4" stroke-width="3.2" d="M24 8l-16 16M8 8l16 16"></path>
</symbol>
<symbol id="facebook-icon" viewBox="0 0 32 32">
<path  d="M19.52 4.64h0.96v3.6h-1.2c-0.48 0-0.96 0-1.2 0.24s-0.24 0.48-0.24 1.040v1.28h2.64v3.040h-2.64v13.2h-4.080v-13.28h-2.16v-3.040h2.16v-1.040c0-1.76 0.24-3.040 0.72-3.6 0.72-1.040 2.16-1.52 4.32-1.52 0.24 0.080 0.48 0.080 0.72 0.080z"></path>
</symbol>

<symbol id="instagram-icon" viewBox="0 0 32 32">
<path  opacity="0.8" d="M28.718 10.755c-0.016-1.134-0.233-2.212-0.617-3.207l0.021 0.063c-0.682-1.722-2.021-3.059-3.7-3.722l-0.044-0.015c-0.921-0.356-1.985-0.573-3.097-0.596l-0.010-0c-1.367-0.061-1.801-0.078-5.271-0.078-3.472 0-3.917 0-5.274 0.078-1.063 0.023-2.113 0.223-3.106 0.597-1.724 0.678-3.064 2.015-3.73 3.693l-0.015 0.044c-0.357 0.918-0.574 1.981-0.596 3.091l-0 0.009c-0.061 1.367-0.080 1.8-0.080 5.265 0 3.466 0 3.909 0.080 5.265 0.023 1.121 0.24 2.184 0.618 3.168l-0.022-0.064c0.682 1.721 2.021 3.058 3.7 3.721l0.044 0.015c0.917 0.369 1.98 0.6 3.091 0.637l0.015 0c1.369 0.062 1.802 0.080 5.274 0.080 3.471 0 3.917 0 5.274-0.080 1.122-0.023 2.187-0.239 3.172-0.616l-0.064 0.022c1.722-0.68 3.061-2.016 3.727-3.693l0.016-0.044c0.374-0.993 0.574-2.040 0.595-3.103 0.062-1.366 0.080-1.799 0.080-5.266-0.003-3.465-0.003-3.905-0.082-5.264zM15.989 22.531c-0.002 0-0.004 0-0.006 0-3.625 0-6.563-2.937-6.566-6.561v-0c0.002-3.624 2.94-6.561 6.565-6.561 0.002 0 0.005 0 0.007 0h-0c3.629 0 6.571 2.937 6.571 6.56-0.003 3.625-2.942 6.562-6.567 6.562-0.002 0-0.003 0-0.005 0h0zM22.823 10.696c-0.845 0-1.53-0.685-1.53-1.53s0.685-1.53 1.53-1.53v0c0.012-0 0.027-0.001 0.042-0.001 0.845 0 1.53 0.685 1.53 1.53s-0.685 1.53-1.53 1.53c-0.015 0-0.029-0-0.044-0.001l0.002 0z"></path>
<path  style="fill: var(--color1, #7e847f)" opacity="0.8" d="M15.992 19.976c0.020 0 0.044 0.001 0.068 0.001 2.212 0 4.005-1.793 4.005-4.005s-1.793-4.005-4.005-4.005c-0.024 0-0.048 0-0.071 0.001l0.004-0c-2.182 0.038-3.937 1.816-3.937 4.004s1.755 3.966 3.933 4.004l0.004 0z"></path>
</symbol>

<symbol id="logo-icon" viewBox="0 0 172 32">
<path d="M9.792 24.384c-1.6 0-3.020-0.34-4.256-1.024-1.229-0.68-2.219-1.66-2.893-2.843l-0.019-0.037c-0.704-1.238-1.056-2.666-1.056-4.288 0-1.642 0.34-3.104 1.024-4.384 0.679-1.249 1.659-2.26 2.844-2.957l0.036-0.019c1.238-0.726 2.688-1.088 4.352-1.088 1.558 0 2.934 0.34 4.128 1.024 1.194 0.682 2.122 1.62 2.784 2.816 0.682 1.174 1.024 2.486 1.024 3.936 0 0.234-0.010 0.48-0.032 0.736 0 0.256-0.010 0.522-0.032 0.8h-12.064c0.086 1.238 0.512 2.208 1.28 2.912 0.79 0.704 1.74 1.056 2.848 1.056 0.832 0 1.526-0.18 2.080-0.544s0.991-0.862 1.271-1.451l0.009-0.021h4.16c-0.3 1.002-0.8 1.92-1.504 2.752-0.691 0.81-1.546 1.46-2.515 1.902l-0.045 0.018c-1.002 0.47-2.144 0.704-3.424 0.704zM9.824 11.072c-1.002 0-1.888 0.288-2.656 0.864-0.768 0.554-1.26 1.408-1.472 2.56h7.904c-0.064-1.046-0.448-1.878-1.152-2.496-0.704-0.62-1.58-0.928-2.624-0.928zM20.564 24v-15.872h3.618l0.32 2.688c0.49-0.94 1.194-1.686 2.112-2.24 0.938-0.554 2.036-0.832 3.294-0.832 1.964 0 3.488 0.62 4.576 1.856 1.088 1.238 1.632 3.050 1.632 5.44v8.96h-4.094v-8.576c0-1.366-0.28-2.41-0.832-3.136-0.556-0.726-1.42-1.088-2.592-1.088-1.152 0-2.102 0.406-2.85 1.216-0.724 0.81-1.086 1.94-1.086 3.392v8.192h-4.096zM47.104 24.384c-1.6 0-3.016-0.34-4.254-1.024-1.229-0.68-2.219-1.66-2.893-2.843l-0.019-0.037c-0.704-1.238-1.056-2.666-1.056-4.288 0-1.642 0.34-3.104 1.024-4.384 0.679-1.249 1.659-2.26 2.844-2.957l0.036-0.019c1.238-0.726 2.688-1.088 4.352-1.088 1.558 0 2.932 0.34 4.128 1.024 1.194 0.682 2.122 1.62 2.784 2.816 0.682 1.174 1.024 2.486 1.024 3.936 0 0.234-0.010 0.48-0.032 0.736 0 0.256-0.012 0.522-0.032 0.8h-12.064c0.086 1.238 0.512 2.208 1.28 2.912 0.79 0.704 1.74 1.056 2.848 1.056 0.832 0 1.524-0.18 2.080-0.544 0.554-0.363 0.991-0.862 1.271-1.451l0.009-0.021h4.16c-0.3 1.002-0.8 1.92-1.504 2.752-0.691 0.81-1.546 1.46-2.515 1.901l-0.045 0.018c-1.004 0.47-2.144 0.704-3.424 0.704zM47.138 11.072c-1.004 0-1.888 0.288-2.656 0.864-0.768 0.554-1.26 1.408-1.472 2.56h7.904c-0.064-1.046-0.448-1.878-1.152-2.496-0.704-0.62-1.58-0.928-2.624-0.928zM57.878 24v-15.872h3.648l0.384 2.976c0.565-1.009 1.356-1.83 2.308-2.416l0.028-0.016c1.004-0.62 2.176-0.928 3.52-0.928v4.32h-1.152c-0.896 0-1.696 0.14-2.4 0.416-0.704 0.278-1.258 0.758-1.664 1.44-0.384 0.682-0.576 1.632-0.576 2.848v7.232h-4.094zM76.272 19.264c-0.019 0-0.042 0-0.065 0-0.738 0-1.455-0.093-2.138-0.269l0.059 0.013-1.184 1.184c0.362 0.192 0.852 0.352 1.472 0.48 0.618 0.128 1.62 0.256 3.008 0.384 2.112 0.192 3.648 0.694 4.608 1.504s1.44 1.93 1.44 3.36c0 0.94-0.256 1.824-0.768 2.656-0.512 0.854-1.302 1.536-2.368 2.048-1.068 0.534-2.432 0.8-4.096 0.8-2.262 0-4.086-0.426-5.472-1.28-1.388-0.832-2.080-2.090-2.080-3.776 0-1.43 0.692-2.666 2.080-3.712-0.433-0.192-0.801-0.396-1.149-0.626l0.029 0.018c-0.297-0.212-0.558-0.433-0.8-0.672l0 0v-0.736l2.784-2.944c-1.238-1.088-1.856-2.486-1.856-4.192 0-1.066 0.256-2.038 0.768-2.912 0.532-0.874 1.28-1.568 2.24-2.080s2.122-0.768 3.488-0.768c0.896 0 1.728 0.128 2.496 0.384h6.016v2.496l-2.72 0.192c0.426 0.81 0.64 1.706 0.64 2.688 0 1.066-0.256 2.038-0.768 2.912s-1.26 1.568-2.24 2.080c-0.96 0.512-2.102 0.768-3.424 0.768zM76.272 16.128c0.832 0 1.514-0.224 2.048-0.672 0.554-0.448 0.832-1.088 0.832-1.92s-0.278-1.472-0.832-1.92c-0.534-0.448-1.216-0.672-2.048-0.672-0.876 0-1.58 0.224-2.112 0.672-0.534 0.448-0.8 1.088-0.8 1.92s0.266 1.472 0.8 1.92c0.532 0.448 1.236 0.672 2.112 0.672zM72.432 25.952c0 0.79 0.362 1.376 1.088 1.76 0.746 0.406 1.652 0.608 2.72 0.608 1.024 0 1.856-0.214 2.496-0.64 0.64-0.406 0.96-0.96 0.96-1.664 0-0.011 0-0.024 0-0.038 0-0.559-0.247-1.060-0.638-1.401l-0.002-0.002c-0.406-0.384-1.228-0.62-2.464-0.704-0.928-0.066-1.762-0.168-2.583-0.31l0.151 0.022c-0.62 0.34-1.068 0.714-1.344 1.12-0.256 0.406-0.384 0.82-0.384 1.248zM89.114 31.040l3.68-8.096h-0.96l-6.176-14.816h4.448l4.448 11.168 4.64-11.168h4.352l-10.080 22.912h-4.352zM104.906 24.224c-0.746 0-1.366-0.234-1.856-0.704-0.435-0.421-0.704-1.010-0.704-1.661 0-0.012 0-0.024 0-0.036l-0 0.002c0-0.682 0.234-1.26 0.704-1.728 0.49-0.47 1.11-0.704 1.856-0.704s1.354 0.234 1.824 0.704c0.49 0.47 0.736 1.046 0.736 1.728 0 0.66-0.244 1.226-0.736 1.696-0.47 0.47-1.076 0.704-1.824 0.704zM110.93 24v-12.448h-2.176v-3.424h2.176v-1.856c0-1.92 0.48-3.286 1.44-4.096 0.98-0.81 2.304-1.216 3.968-1.216h1.76v3.488h-1.12c-0.704 0-1.206 0.14-1.504 0.416-0.3 0.278-0.448 0.746-0.448 1.408v1.856h3.424v3.424h-3.424v12.448h-4.096zM121.682 24v-23.040h4.096v23.040h-4.098zM136.95 24.384c-1.534 0-2.92-0.352-4.16-1.056-1.217-0.71-2.202-1.695-2.892-2.874l-0.020-0.038c-0.702-1.26-1.054-2.71-1.054-4.352s0.36-3.082 1.086-4.32c0.726-1.26 1.698-2.24 2.914-2.944 1.236-0.704 2.622-1.056 4.16-1.056 1.514 0 2.88 0.352 4.094 1.056 1.232 0.704 2.222 1.704 2.894 2.906l0.020 0.038c0.724 1.238 1.088 2.678 1.088 4.32s-0.364 3.094-1.088 4.352c-0.698 1.226-1.686 2.214-2.875 2.892l-0.037 0.020c-1.158 0.665-2.547 1.057-4.026 1.057-0.036 0-0.073-0-0.109-0.001l0.006 0zM136.95 20.832c1.068 0 1.996-0.394 2.786-1.184 0.788-0.81 1.184-2.006 1.184-3.584 0-1.58-0.396-2.762-1.184-3.552-0.79-0.81-1.708-1.216-2.752-1.216-1.088 0-2.028 0.406-2.818 1.216-0.766 0.79-1.152 1.974-1.152 3.552 0 1.58 0.384 2.774 1.152 3.584 0.79 0.79 1.72 1.184 2.784 1.184zM150.644 24l-4.64-15.872h4.064l2.752 11.424 3.2-11.424h4.544l3.2 11.424 2.784-11.424h4.064l-4.672 15.872h-4.256l-3.392-11.872-3.392 11.872h-4.256z"></path>
</symbol>
<symbol id="logo-icon-big" viewBox="0 0 170 32">
<path d="M8.649 24.384c-1.6 0-3.018-0.342-4.256-1.024-1.229-0.68-2.219-1.66-2.893-2.843l-0.019-0.037c-0.704-1.238-1.056-2.666-1.056-4.288 0-1.642 0.342-3.104 1.024-4.384 0.704-1.28 1.664-2.272 2.88-2.976 1.238-0.726 2.688-1.088 4.352-1.088 1.558 0 2.934 0.342 4.128 1.024 1.178 0.672 2.125 1.629 2.765 2.779l0.019 0.037c0.682 1.174 1.024 2.486 1.024 3.936 0 0.234-0.011 0.48-0.032 0.736 0 0.256-0.011 0.522-0.032 0.8h-12.064c0.086 1.238 0.512 2.208 1.28 2.912 0.789 0.704 1.738 1.056 2.848 1.056 0.832 0 1.526-0.182 2.080-0.544s0.991-0.862 1.271-1.451l0.009-0.021h4.16c-0.298 1.002-0.8 1.92-1.504 2.752-0.691 0.81-1.546 1.46-2.515 1.902l-0.045 0.018c-1.002 0.469-2.144 0.704-3.424 0.704zM8.681 11.072c-1.002 0-1.888 0.288-2.656 0.864-0.768 0.554-1.258 1.408-1.472 2.56h7.904c-0.064-1.046-0.448-1.878-1.152-2.496s-1.578-0.928-2.624-0.928zM19.422 24v-15.872h3.616l0.32 2.688c0.493-0.938 1.212-1.698 2.087-2.226l0.025-0.014c0.939-0.554 2.038-0.832 3.296-0.832 1.963 0 3.488 0.618 4.576 1.856s1.632 3.051 1.632 5.44v8.96h-4.096v-8.576c0-1.366-0.277-2.411-0.832-3.136-0.554-0.726-1.418-1.088-2.592-1.088-1.152 0-2.101 0.406-2.848 1.216-0.725 0.811-1.088 1.942-1.088 3.392v8.192h-4.096zM45.963 24.384c-1.6 0-3.019-0.342-4.257-1.024-1.229-0.68-2.218-1.66-2.892-2.843l-0.019-0.037c-0.704-1.238-1.056-2.666-1.056-4.288 0-1.642 0.341-3.104 1.023-4.384 0.704-1.28 1.664-2.272 2.88-2.976 1.238-0.726 2.688-1.088 4.353-1.088 1.557 0 2.933 0.342 4.127 1.024 1.178 0.672 2.125 1.629 2.766 2.779l0.019 0.037c0.682 1.174 1.024 2.486 1.024 3.936 0 0.234-0.011 0.48-0.033 0.736 0 0.256-0.010 0.522-0.032 0.8h-12.063c0.086 1.238 0.513 2.208 1.28 2.912 0.79 0.704 1.739 1.056 2.848 1.056 0.832 0 1.526-0.182 2.080-0.544s0.991-0.862 1.271-1.451l0.009-0.021h4.16c-0.297 1.002-0.8 1.92-1.504 2.752-0.691 0.81-1.546 1.46-2.515 1.902l-0.045 0.018c-1.002 0.469-2.144 0.704-3.423 0.704zM45.994 11.072c-1.002 0-1.887 0.288-2.655 0.864-0.768 0.554-1.259 1.408-1.472 2.56h7.904c-0.064-1.046-0.448-1.878-1.152-2.496-0.705-0.618-1.579-0.928-2.625-0.928zM56.737 24v-15.872h3.648l0.384 2.976c0.565-1.009 1.356-1.83 2.308-2.416l0.028-0.016c1.002-0.618 2.176-0.928 3.52-0.928v4.32h-1.152c-0.896 0-1.696 0.138-2.4 0.416-0.712 0.285-1.287 0.787-1.655 1.424l-0.008 0.016c-0.384 0.682-0.576 1.632-0.576 2.848v7.232h-4.096zM75.129 19.264c-0.019 0-0.042 0-0.065 0-0.738 0-1.455-0.093-2.138-0.269l0.059 0.013-1.184 1.184c0.363 0.192 0.854 0.352 1.472 0.48 0.619 0.128 1.622 0.256 3.008 0.384 2.112 0.192 3.648 0.694 4.608 1.504 0.96 0.811 1.44 1.931 1.44 3.36-0 0.985-0.287 1.903-0.78 2.676l0.012-0.020c-0.512 0.854-1.301 1.536-2.368 2.048-1.066 0.534-2.432 0.8-4.096 0.8-2.261 0-4.085-0.426-5.472-1.28-1.386-0.832-2.080-2.091-2.080-3.776 0-1.429 0.694-2.666 2.080-3.712-0.433-0.192-0.801-0.396-1.149-0.626l0.029 0.018c-0.297-0.212-0.558-0.432-0.8-0.672l0 0v-0.736l2.784-2.944c-1.237-1.088-1.856-2.486-1.856-4.192 0-1.066 0.256-2.038 0.768-2.912 0.534-0.874 1.28-1.568 2.24-2.080s2.123-0.768 3.488-0.768c0.896 0 1.728 0.128 2.496 0.384h6.016v2.496l-2.72 0.192c0.427 0.811 0.64 1.706 0.64 2.688 0 0.019 0 0.042 0 0.065 0 1.049-0.285 2.031-0.783 2.873l0.014-0.026c-0.512 0.874-1.258 1.568-2.24 2.080-0.96 0.512-2.101 0.768-3.424 0.768zM75.129 16.128c0.832 0 1.515-0.224 2.048-0.672 0.555-0.448 0.832-1.088 0.832-1.92s-0.277-1.472-0.832-1.92c-0.533-0.448-1.216-0.672-2.048-0.672-0.874 0-1.578 0.224-2.112 0.672-0.533 0.448-0.8 1.088-0.8 1.92s0.267 1.472 0.8 1.92c0.534 0.448 1.238 0.672 2.112 0.672zM71.289 25.952c0 0.789 0.363 1.376 1.088 1.76 0.747 0.406 1.654 0.608 2.72 0.608 1.024 0 1.856-0.214 2.496-0.64 0.64-0.406 0.96-0.96 0.96-1.664 0-0.576-0.213-1.056-0.64-1.44-0.405-0.384-1.226-0.618-2.464-0.704-0.928-0.066-1.762-0.168-2.583-0.31l0.151 0.022c-0.618 0.342-1.066 0.714-1.344 1.12-0.236 0.351-0.378 0.782-0.384 1.247v0.001zM87.973 31.040l3.68-8.096h-0.96l-6.178-14.816h4.448l4.448 11.168 4.64-11.168h4.352l-10.080 22.912h-4.352zM103.765 24.224c-0.746 0-1.366-0.234-1.856-0.704-0.435-0.421-0.704-1.010-0.704-1.661 0-0.012 0-0.024 0-0.036l-0 0.002c0-0.682 0.234-1.258 0.704-1.728 0.491-0.469 1.109-0.704 1.856-0.704 0.746 0 1.354 0.234 1.824 0.704 0.491 0.469 0.736 1.046 0.736 1.728 0 0.008 0 0.017 0 0.026 0 0.661-0.283 1.255-0.734 1.669l-0.002 0.002c-0.469 0.469-1.078 0.704-1.824 0.704zM109.787 24v-12.448h-2.176v-3.424h2.176v-1.856c0-1.92 0.48-3.286 1.44-4.096 0.983-0.811 2.305-1.216 3.969-1.216h1.76v3.488h-1.12c-0.704 0-1.206 0.138-1.504 0.416-0.299 0.278-0.449 0.746-0.449 1.408v1.856h3.425v3.424h-3.425v12.448h-4.096zM120.541 24v-23.040h4.096v23.040h-4.096zM135.809 24.384c-1.536 0-2.922-0.352-4.16-1.056-1.216-0.71-2.202-1.696-2.892-2.874l-0.020-0.038c-0.704-1.258-1.056-2.709-1.056-4.352 0-1.642 0.362-3.082 1.088-4.32 0.704-1.231 1.69-2.228 2.874-2.924l0.037-0.020c1.238-0.704 2.624-1.056 4.16-1.056 1.514 0 2.88 0.352 4.096 1.056 1.231 0.704 2.221 1.704 2.892 2.906l0.020 0.038c0.726 1.238 1.088 2.678 1.088 4.32s-0.362 3.094-1.088 4.352c-0.698 1.226-1.686 2.214-2.875 2.892l-0.037 0.020c-1.238 0.704-2.614 1.056-4.128 1.056zM135.809 20.832c1.066 0 1.994-0.394 2.784-1.184 0.79-0.811 1.184-2.006 1.184-3.584s-0.394-2.762-1.184-3.552c-0.79-0.811-1.706-1.216-2.752-1.216-1.088 0-2.026 0.406-2.816 1.216-0.768 0.789-1.152 1.974-1.152 3.552s0.384 2.774 1.152 3.584c0.79 0.789 1.718 1.184 2.784 1.184zM149.499 24l-4.64-15.872h4.064l2.752 11.424 3.2-11.424h4.544l3.2 11.424 2.784-11.424h4.064l-4.672 15.872h-4.256l-3.392-11.872-3.392 11.872h-4.256z"></path>
</symbol>
<symbol id="logo-menu-icon" viewBox="0 0 172 32">
<path fill="#f6f6f6" style="fill: var(--color2, #f6f6f6)" d="M9.792 24.384c-1.6 0-3.020-0.34-4.256-1.024-1.229-0.68-2.219-1.66-2.893-2.843l-0.019-0.037c-0.704-1.238-1.056-2.666-1.056-4.288 0-1.642 0.34-3.104 1.024-4.384 0.679-1.249 1.659-2.26 2.844-2.957l0.036-0.019c1.238-0.726 2.688-1.088 4.352-1.088 1.558 0 2.934 0.34 4.128 1.024 1.194 0.682 2.122 1.62 2.784 2.816 0.682 1.174 1.024 2.486 1.024 3.936 0 0.234-0.010 0.48-0.032 0.736 0 0.256-0.010 0.522-0.032 0.8h-12.064c0.086 1.238 0.512 2.208 1.28 2.912 0.79 0.704 1.74 1.056 2.848 1.056 0.832 0 1.526-0.18 2.080-0.544s0.991-0.862 1.271-1.451l0.009-0.021h4.16c-0.3 1.002-0.8 1.92-1.504 2.752-0.691 0.81-1.546 1.46-2.515 1.902l-0.045 0.018c-1.002 0.47-2.144 0.704-3.424 0.704zM9.824 11.072c-1.002 0-1.888 0.288-2.656 0.864-0.768 0.554-1.26 1.408-1.472 2.56h7.904c-0.064-1.046-0.448-1.878-1.152-2.496-0.704-0.62-1.58-0.928-2.624-0.928zM20.564 24v-15.872h3.618l0.32 2.688c0.49-0.94 1.194-1.686 2.112-2.24 0.938-0.554 2.036-0.832 3.294-0.832 1.964 0 3.488 0.62 4.576 1.856 1.088 1.238 1.632 3.050 1.632 5.44v8.96h-4.094v-8.576c0-1.366-0.28-2.41-0.832-3.136-0.556-0.726-1.42-1.088-2.592-1.088-1.152 0-2.102 0.406-2.85 1.216-0.724 0.81-1.086 1.94-1.086 3.392v8.192h-4.096zM47.104 24.384c-1.6 0-3.016-0.34-4.254-1.024-1.229-0.68-2.219-1.66-2.893-2.843l-0.019-0.037c-0.704-1.238-1.056-2.666-1.056-4.288 0-1.642 0.34-3.104 1.024-4.384 0.679-1.249 1.659-2.26 2.844-2.957l0.036-0.019c1.238-0.726 2.688-1.088 4.352-1.088 1.558 0 2.932 0.34 4.128 1.024 1.194 0.682 2.122 1.62 2.784 2.816 0.682 1.174 1.024 2.486 1.024 3.936 0 0.234-0.010 0.48-0.032 0.736 0 0.256-0.012 0.522-0.032 0.8h-12.064c0.086 1.238 0.512 2.208 1.28 2.912 0.79 0.704 1.74 1.056 2.848 1.056 0.832 0 1.524-0.18 2.080-0.544 0.554-0.363 0.991-0.862 1.271-1.451l0.009-0.021h4.16c-0.3 1.002-0.8 1.92-1.504 2.752-0.691 0.81-1.546 1.46-2.515 1.901l-0.045 0.018c-1.004 0.47-2.144 0.704-3.424 0.704zM47.138 11.072c-1.004 0-1.888 0.288-2.656 0.864-0.768 0.554-1.26 1.408-1.472 2.56h7.904c-0.064-1.046-0.448-1.878-1.152-2.496-0.704-0.62-1.58-0.928-2.624-0.928zM57.878 24v-15.872h3.648l0.384 2.976c0.565-1.009 1.356-1.83 2.308-2.416l0.028-0.016c1.004-0.62 2.176-0.928 3.52-0.928v4.32h-1.152c-0.896 0-1.696 0.14-2.4 0.416-0.704 0.278-1.258 0.758-1.664 1.44-0.384 0.682-0.576 1.632-0.576 2.848v7.232h-4.094zM76.272 19.264c-0.019 0-0.042 0-0.065 0-0.738 0-1.455-0.093-2.138-0.269l0.059 0.013-1.184 1.184c0.362 0.192 0.852 0.352 1.472 0.48 0.618 0.128 1.62 0.256 3.008 0.384 2.112 0.192 3.648 0.694 4.608 1.504s1.44 1.93 1.44 3.36c0 0.94-0.256 1.824-0.768 2.656-0.512 0.854-1.302 1.536-2.368 2.048-1.068 0.534-2.432 0.8-4.096 0.8-2.262 0-4.086-0.426-5.472-1.28-1.388-0.832-2.080-2.090-2.080-3.776 0-1.43 0.692-2.666 2.080-3.712-0.433-0.192-0.801-0.396-1.149-0.626l0.029 0.018c-0.297-0.212-0.558-0.433-0.8-0.672l0 0v-0.736l2.784-2.944c-1.238-1.088-1.856-2.486-1.856-4.192 0-1.066 0.256-2.038 0.768-2.912 0.532-0.874 1.28-1.568 2.24-2.080s2.122-0.768 3.488-0.768c0.896 0 1.728 0.128 2.496 0.384h6.016v2.496l-2.72 0.192c0.426 0.81 0.64 1.706 0.64 2.688 0 1.066-0.256 2.038-0.768 2.912s-1.26 1.568-2.24 2.080c-0.96 0.512-2.102 0.768-3.424 0.768zM76.272 16.128c0.832 0 1.514-0.224 2.048-0.672 0.554-0.448 0.832-1.088 0.832-1.92s-0.278-1.472-0.832-1.92c-0.534-0.448-1.216-0.672-2.048-0.672-0.876 0-1.58 0.224-2.112 0.672-0.534 0.448-0.8 1.088-0.8 1.92s0.266 1.472 0.8 1.92c0.532 0.448 1.236 0.672 2.112 0.672zM72.432 25.952c0 0.79 0.362 1.376 1.088 1.76 0.746 0.406 1.652 0.608 2.72 0.608 1.024 0 1.856-0.214 2.496-0.64 0.64-0.406 0.96-0.96 0.96-1.664 0-0.011 0-0.024 0-0.038 0-0.559-0.247-1.060-0.638-1.401l-0.002-0.002c-0.406-0.384-1.228-0.62-2.464-0.704-0.928-0.066-1.762-0.168-2.583-0.31l0.151 0.022c-0.62 0.34-1.068 0.714-1.344 1.12-0.256 0.406-0.384 0.82-0.384 1.248zM89.114 31.040l3.68-8.096h-0.96l-6.176-14.816h4.448l4.448 11.168 4.64-11.168h4.352l-10.080 22.912h-4.352zM104.906 24.224c-0.746 0-1.366-0.234-1.856-0.704-0.435-0.421-0.704-1.010-0.704-1.661 0-0.012 0-0.024 0-0.036l-0 0.002c0-0.682 0.234-1.26 0.704-1.728 0.49-0.47 1.11-0.704 1.856-0.704s1.354 0.234 1.824 0.704c0.49 0.47 0.736 1.046 0.736 1.728 0 0.66-0.244 1.226-0.736 1.696-0.47 0.47-1.076 0.704-1.824 0.704zM110.93 24v-12.448h-2.176v-3.424h2.176v-1.856c0-1.92 0.48-3.286 1.44-4.096 0.98-0.81 2.304-1.216 3.968-1.216h1.76v3.488h-1.12c-0.704 0-1.206 0.14-1.504 0.416-0.3 0.278-0.448 0.746-0.448 1.408v1.856h3.424v3.424h-3.424v12.448h-4.096zM121.682 24v-23.040h4.096v23.040h-4.098zM136.95 24.384c-1.534 0-2.92-0.352-4.16-1.056-1.217-0.71-2.202-1.695-2.892-2.874l-0.020-0.038c-0.702-1.26-1.054-2.71-1.054-4.352s0.36-3.082 1.086-4.32c0.726-1.26 1.698-2.24 2.914-2.944 1.236-0.704 2.622-1.056 4.16-1.056 1.514 0 2.88 0.352 4.094 1.056 1.232 0.704 2.222 1.704 2.894 2.906l0.020 0.038c0.724 1.238 1.088 2.678 1.088 4.32s-0.364 3.094-1.088 4.352c-0.698 1.226-1.686 2.214-2.875 2.892l-0.037 0.020c-1.158 0.665-2.547 1.057-4.026 1.057-0.036 0-0.073-0-0.109-0.001l0.006 0zM136.95 20.832c1.068 0 1.996-0.394 2.786-1.184 0.788-0.81 1.184-2.006 1.184-3.584 0-1.58-0.396-2.762-1.184-3.552-0.79-0.81-1.708-1.216-2.752-1.216-1.088 0-2.028 0.406-2.818 1.216-0.766 0.79-1.152 1.974-1.152 3.552 0 1.58 0.384 2.774 1.152 3.584 0.79 0.79 1.72 1.184 2.784 1.184zM150.644 24l-4.64-15.872h4.064l2.752 11.424 3.2-11.424h4.544l3.2 11.424 2.784-11.424h4.064l-4.672 15.872h-4.256l-3.392-11.872-3.392 11.872h-4.256z"></path>
</symbol>
<symbol id="youtube-icon" viewBox="0 0 32 32">
<path opacity="0.8" d="M24.24 6c-1.36-0.080-4.16-0.16-8.4-0.16h-0.56c-4.080 0-6.8 0.080-8.16 0.24-1.84 0.16-3.12 0.64-3.84 1.28-0.64 0.56-1.12 1.6-1.28 2.96-0.080 0.88-0.16 2.72-0.16 5.52v0.4c0 2.64 0.080 4.48 0.24 5.36 0.24 1.28 0.64 2.24 1.44 2.8 0.8 0.64 2.16 1.040 4.080 1.2 1.36 0.080 4.16 0.16 8.4 0.16h0.56c4.080 0 6.8-0.080 8.16-0.24 1.84-0.16 3.12-0.64 3.84-1.28 0.64-0.56 1.12-1.6 1.28-2.96 0.080-0.88 0.16-2.72 0.16-5.52v-0.4c0-2.64-0.080-4.48-0.24-5.36-0.24-1.28-0.64-2.24-1.44-2.8-0.8-0.64-2.16-1.040-4.080-1.2zM21.12 15.84l-8.8 5.28v-10.56l8.8 5.28z"></path>
</symbol>
<symbol id="fluent-icon" viewBox="0 0 32 32">
<path  d="M7.36 9.143h-1.92c-0.532 0-0.96 0.459-0.96 1.029v4.457h-0.96c-0.176 0-0.32 0.154-0.32 0.343v2.057c0 0.188 0.144 0.343 0.32 0.343h0.96v4.457c0 0.57 0.428 1.028 0.96 1.028h1.92c0.532 0 0.96-0.459 0.96-1.028v-11.657c0-0.57-0.428-1.029-0.96-1.029zM28.48 14.629h-0.96v-4.457c0-0.57-0.428-1.029-0.96-1.029h-1.92c-0.532 0-0.96 0.459-0.96 1.029v11.657c0 0.57 0.428 1.028 0.96 1.028h1.92c0.532 0 0.96-0.459 0.96-1.028v-4.457h0.96c0.176 0 0.32-0.154 0.32-0.343v-2.057c0-0.189-0.144-0.343-0.32-0.343zM21.44 6.4h-1.92c-0.532 0-0.96 0.459-0.96 1.029v7.2h-5.12v-7.2c0-0.57-0.428-1.029-0.96-1.029h-1.92c-0.532 0-0.96 0.459-0.96 1.029v17.143c0 0.57 0.428 1.029 0.96 1.029h1.92c0.532 0 0.96-0.459 0.96-1.029v-7.2h5.12v7.2c0 0.57 0.428 1.029 0.96 1.029h1.92c0.532 0 0.96-0.459 0.96-1.029v-17.143c0-0.57-0.428-1.029-0.96-1.029z"></path>
</symbol>
<symbol id="icon-arrow-top" viewBox="0 0 31 32">
<path fill="#f6f6f6" style="fill: var(--color1, #f6f6f6)" d="M16.413 7.652v17.019h-1.811v-17.019l-8.509 8.509-1.28-1.28 10.695-10.695 10.695 10.695-1.28 1.28-8.509-8.509z"></path>
</symbol>
</defs>
</svg>


