<svg aria-hidden="true" style="position: absolute; width: 0; height: 0; overflow: hidden;" version="1.1" xmlns="http://www.w3.org/2000/svg" xmlns:xlink="http://www.w3.org/1999/xlink">
<defs>
<symbol id="burger-menu-icon" viewBox="0 0 64 32">
<path fill="#bfbaba" style="fill: var(--color1, #bfbaba)" d="M0 0h64v32h-64z"></path>
<path fill="#f6f6f6" style="fill: var(--color2, #f6f6f6)" d="M-606-80h750v9394h-750z"></path>
<path fill="#e8e8e8" style="fill: var(--color3, #e8e8e8)" d="M-506-40h550c33.137 0 60 26.863 60 60v654c0 33.137-26.863 60-60 60h-550c-33.137 0-60-26.863-60-60v-654c0-33.137 26.863-60 60-60z"></path>
<path fill="none" stroke="#7e847f" style="stroke: var(--color5, #7e847f)" stroke-linejoin="round" stroke-linecap="round" stroke-miterlimit="4" stroke-width="4" d="M56 20.666h-48M56 10h-48"></path>
</symbol>
<symbol id="close-burger-menu-icon" viewBox="0 0 32 32">
<path fill="none" stroke="#f6f6f6" style="stroke: var(--color2, #f6f6f6)" stroke-linejoin="round" stroke-linecap="round" stroke-miterlimit="4" stroke-width="3.2" d="M24 8l-16 16M8 8l16 16"></path>
</symbol>
<symbol id="facebook-icon" viewBox="0 0 32 32">
<path fill="none" stroke="#7e847f" style="stroke: var(--color5, #7e847f)" stroke-linejoin="miter" stroke-linecap="butt" stroke-miterlimit="4" stroke-width="0.7273" d="M7.273 0.364h17.455c3.816 0 6.909 3.093 6.909 6.909v17.455c0 3.816-3.093 6.909-6.909 6.909h-17.455c-3.816 0-6.909-3.093-6.909-6.909v-17.455c0-3.816 3.093-6.909 6.909-6.909z"></path>
<path fill="#7e847f" style="fill: var(--color5, #7e847f)" opacity="0.8" d="M18.24 8.771h0.611v2.291h-0.764c-0.305 0-0.611 0-0.764 0.153s-0.153 0.305-0.153 0.662v0.815h1.68v1.935h-1.68v8.4h-2.596v-8.451h-1.375v-1.935h1.375v-0.662c0-1.12 0.153-1.935 0.458-2.291 0.458-0.662 1.375-0.967 2.749-0.967 0.153 0.051 0.305 0.051 0.458 0.051z"></path>
</symbol>
<symbol id="facebook-menu-icon" viewBox="0 0 32 32">
<path fill="none" stroke="#f6f6f6" style="stroke: var(--color2, #f6f6f6)" stroke-linejoin="miter" stroke-linecap="butt" stroke-miterlimit="4" stroke-width="0.7805" d="M7.805 0.39h16.39c4.095 0 7.415 3.32 7.415 7.415v16.39c0 4.095-3.32 7.415-7.415 7.415h-16.39c-4.095 0-7.415-3.32-7.415-7.415v-16.39c0-4.095 3.32-7.415 7.415-7.415z"></path>
<path fill="#f6f6f6" style="fill: var(--color2, #f6f6f6)" opacity="0.8" d="M18.146 9.073h0.585v2.195h-0.732c-0.293 0-0.585 0-0.731 0.146s-0.147 0.293-0.147 0.635v0.78h1.61v1.854h-1.61v8.048h-2.487v-8.098h-1.317v-1.854h1.317v-0.634c0-1.073 0.147-1.854 0.439-2.195 0.439-0.634 1.317-0.926 2.634-0.926 0.146 0.048 0.293 0.048 0.439 0.048z"></path>
</symbol>
<symbol id="instagram-icon" viewBox="0 0 32 32">
<path fill="none" stroke="#7e847f" style="stroke: var(--color5, #7e847f)" stroke-linejoin="miter" stroke-linecap="butt" stroke-miterlimit="4" stroke-width="0.7273" d="M7.273 0.364h17.455c3.816 0 6.909 3.093 6.909 6.909v17.455c0 3.816-3.093 6.909-6.909 6.909h-17.455c-3.816 0-6.909-3.093-6.909-6.909v-17.455c0-3.816 3.093-6.909 6.909-6.909z"></path>
<path fill="#7e847f" style="fill: var(--color5, #7e847f)" opacity="0.8" d="M24.093 12.663c-0.010-0.722-0.148-1.408-0.393-2.042l0.014 0.040c-0.434-1.096-1.286-1.946-2.354-2.368l-0.028-0.010c-0.586-0.226-1.263-0.364-1.971-0.38l-0.006-0c-0.87-0.039-1.146-0.049-3.355-0.049s-2.492 0-3.356 0.049c-0.676 0.015-1.344 0.142-1.977 0.38-1.097 0.432-1.949 1.282-2.372 2.35l-0.010 0.028c-0.227 0.585-0.365 1.261-0.379 1.967l-0 0.006c-0.039 0.87-0.051 1.145-0.051 3.351s0 2.487 0.051 3.351c0.013 0.676 0.141 1.343 0.378 1.975 0.434 1.096 1.286 1.946 2.355 2.368l0.028 0.010c0.584 0.235 1.26 0.382 1.967 0.406l0.010 0c0.871 0.039 1.147 0.051 3.356 0.051s2.492 0 3.356-0.051c0.714-0.014 1.392-0.152 2.018-0.392l-0.041 0.014c1.096-0.432 1.948-1.283 2.372-2.35l0.010-0.028c0.238-0.632 0.366-1.298 0.379-1.975 0.039-0.869 0.051-1.145 0.051-3.351-0.001-2.205-0.001-2.485-0.052-3.349zM15.993 20.156c-0.001 0-0.002 0-0.004 0-2.307 0-4.177-1.869-4.178-4.175v-0c0.001-2.306 1.871-4.175 4.177-4.175 0.002 0 0.003 0 0.005 0h-0c2.309 0 4.182 1.869 4.182 4.175-0.002 2.307-1.872 4.176-4.179 4.176-0.001 0-0.002 0-0.003 0h0zM20.342 12.625c-0.538 0-0.973-0.436-0.973-0.973s0.436-0.973 0.973-0.973v0c0.008-0 0.017-0 0.027-0 0.538 0 0.974 0.436 0.974 0.974s-0.436 0.974-0.974 0.974c-0.009 0-0.019-0-0.028-0l0.001 0z"></path>
<path fill="#7e847f" style="fill: var(--color5, #7e847f)" opacity="0.8" d="M15.995 18.53c1.407 0 2.548-1.141 2.548-2.548s-1.141-2.548-2.548-2.548v0c-1.407 0-2.548 1.141-2.548 2.548s1.141 2.548 2.548 2.548v0z"></path>
</symbol>
<symbol id="instagram-menu-icon" viewBox="0 0 32 32">
<path fill="none" stroke="#f6f6f6" style="stroke: var(--color2, #f6f6f6)" stroke-linejoin="miter" stroke-linecap="butt" stroke-miterlimit="4" stroke-width="0.7805" d="M7.805 0.39h16.39c4.095 0 7.415 3.32 7.415 7.415v16.39c0 4.095-3.32 7.415-7.415 7.415h-16.39c-4.095 0-7.415-3.32-7.415-7.415v-16.39c0-4.095 3.32-7.415 7.415-7.415z"></path>
<path fill="#f6f6f6" style="fill: var(--color2, #f6f6f6)" opacity="0.8" d="M23.755 12.802c-0.010-0.691-0.142-1.349-0.377-1.956l0.013 0.039c-0.415-1.050-1.232-1.865-2.255-2.27l-0.027-0.009c-0.561-0.217-1.211-0.349-1.889-0.363l-0.006-0c-0.834-0.037-1.098-0.048-3.216-0.048-2.116 0-2.387 0-3.216 0.048-0.648 0.014-1.288 0.136-1.893 0.364-1.051 0.414-1.868 1.229-2.274 2.252l-0.009 0.027c-0.218 0.56-0.35 1.208-0.363 1.885l-0 0.006c-0.037 0.833-0.048 1.097-0.048 3.21s0 2.384 0.048 3.211c0.013 0.648 0.136 1.285 0.364 1.893 0.416 1.049 1.232 1.864 2.256 2.268l0.027 0.009c0.559 0.225 1.207 0.366 1.885 0.389l0.009 0c0.835 0.037 1.099 0.048 3.216 0.048s2.388 0 3.216-0.048c0.684-0.014 1.334-0.146 1.934-0.376l-0.039 0.013c1.050-0.414 1.867-1.229 2.273-2.252l0.009-0.027c0.217-0.56 0.349-1.209 0.363-1.886l0-0.006c0.037-0.833 0.048-1.097 0.048-3.211-0.002-2.113-0.002-2.38-0.050-3.209zM15.994 19.983c-0.001 0-0.002 0-0.003 0-2.21 0-4.002-1.791-4.004-4.001v-0c0.001-2.21 1.793-4.001 4.003-4.001 0.001 0 0.003 0 0.004 0h-0c0.001 0 0.003 0 0.004 0 2.21 0 4.002 1.791 4.004 4.001v0c-0.002 2.21-1.794 4.001-4.004 4.001-0.001 0-0.003 0-0.004 0h0zM20.161 12.766c-0.515 0-0.933-0.418-0.933-0.933s0.418-0.933 0.933-0.933v0c0.515 0 0.933 0.418 0.933 0.933s-0.418 0.933-0.933 0.933v0z"></path>
<path fill="#f6f6f6" style="fill: var(--color2, #f6f6f6)" opacity="0.8" d="M15.995 18.424c1.348 0 2.441-1.093 2.441-2.441s-1.093-2.441-2.441-2.441v0c-1.348 0-2.441 1.093-2.441 2.441s1.093 2.441 2.441 2.441v0z"></path>
</symbol>
<symbol id="logo-icon" viewBox="0 0 172 32">
<path d="M9.792 24.384c-1.6 0-3.020-0.34-4.256-1.024-1.229-0.68-2.219-1.66-2.893-2.843l-0.019-0.037c-0.704-1.238-1.056-2.666-1.056-4.288 0-1.642 0.34-3.104 1.024-4.384 0.679-1.249 1.659-2.26 2.844-2.957l0.036-0.019c1.238-0.726 2.688-1.088 4.352-1.088 1.558 0 2.934 0.34 4.128 1.024 1.194 0.682 2.122 1.62 2.784 2.816 0.682 1.174 1.024 2.486 1.024 3.936 0 0.234-0.010 0.48-0.032 0.736 0 0.256-0.010 0.522-0.032 0.8h-12.064c0.086 1.238 0.512 2.208 1.28 2.912 0.79 0.704 1.74 1.056 2.848 1.056 0.832 0 1.526-0.18 2.080-0.544s0.991-0.862 1.271-1.451l0.009-0.021h4.16c-0.3 1.002-0.8 1.92-1.504 2.752-0.691 0.81-1.546 1.46-2.515 1.902l-0.045 0.018c-1.002 0.47-2.144 0.704-3.424 0.704zM9.824 11.072c-1.002 0-1.888 0.288-2.656 0.864-0.768 0.554-1.26 1.408-1.472 2.56h7.904c-0.064-1.046-0.448-1.878-1.152-2.496-0.704-0.62-1.58-0.928-2.624-0.928zM20.564 24v-15.872h3.618l0.32 2.688c0.49-0.94 1.194-1.686 2.112-2.24 0.938-0.554 2.036-0.832 3.294-0.832 1.964 0 3.488 0.62 4.576 1.856 1.088 1.238 1.632 3.050 1.632 5.44v8.96h-4.094v-8.576c0-1.366-0.28-2.41-0.832-3.136-0.556-0.726-1.42-1.088-2.592-1.088-1.152 0-2.102 0.406-2.85 1.216-0.724 0.81-1.086 1.94-1.086 3.392v8.192h-4.096zM47.104 24.384c-1.6 0-3.016-0.34-4.254-1.024-1.229-0.68-2.219-1.66-2.893-2.843l-0.019-0.037c-0.704-1.238-1.056-2.666-1.056-4.288 0-1.642 0.34-3.104 1.024-4.384 0.679-1.249 1.659-2.26 2.844-2.957l0.036-0.019c1.238-0.726 2.688-1.088 4.352-1.088 1.558 0 2.932 0.34 4.128 1.024 1.194 0.682 2.122 1.62 2.784 2.816 0.682 1.174 1.024 2.486 1.024 3.936 0 0.234-0.010 0.48-0.032 0.736 0 0.256-0.012 0.522-0.032 0.8h-12.064c0.086 1.238 0.512 2.208 1.28 2.912 0.79 0.704 1.74 1.056 2.848 1.056 0.832 0 1.524-0.18 2.080-0.544 0.554-0.363 0.991-0.862 1.271-1.451l0.009-0.021h4.16c-0.3 1.002-0.8 1.92-1.504 2.752-0.691 0.81-1.546 1.46-2.515 1.901l-0.045 0.018c-1.004 0.47-2.144 0.704-3.424 0.704zM47.138 11.072c-1.004 0-1.888 0.288-2.656 0.864-0.768 0.554-1.26 1.408-1.472 2.56h7.904c-0.064-1.046-0.448-1.878-1.152-2.496-0.704-0.62-1.58-0.928-2.624-0.928zM57.878 24v-15.872h3.648l0.384 2.976c0.565-1.009 1.356-1.83 2.308-2.416l0.028-0.016c1.004-0.62 2.176-0.928 3.52-0.928v4.32h-1.152c-0.896 0-1.696 0.14-2.4 0.416-0.704 0.278-1.258 0.758-1.664 1.44-0.384 0.682-0.576 1.632-0.576 2.848v7.232h-4.094zM76.272 19.264c-0.019 0-0.042 0-0.065 0-0.738 0-1.455-0.093-2.138-0.269l0.059 0.013-1.184 1.184c0.362 0.192 0.852 0.352 1.472 0.48 0.618 0.128 1.62 0.256 3.008 0.384 2.112 0.192 3.648 0.694 4.608 1.504s1.44 1.93 1.44 3.36c0 0.94-0.256 1.824-0.768 2.656-0.512 0.854-1.302 1.536-2.368 2.048-1.068 0.534-2.432 0.8-4.096 0.8-2.262 0-4.086-0.426-5.472-1.28-1.388-0.832-2.080-2.090-2.080-3.776 0-1.43 0.692-2.666 2.080-3.712-0.433-0.192-0.801-0.396-1.149-0.626l0.029 0.018c-0.297-0.212-0.558-0.433-0.8-0.672l0 0v-0.736l2.784-2.944c-1.238-1.088-1.856-2.486-1.856-4.192 0-1.066 0.256-2.038 0.768-2.912 0.532-0.874 1.28-1.568 2.24-2.080s2.122-0.768 3.488-0.768c0.896 0 1.728 0.128 2.496 0.384h6.016v2.496l-2.72 0.192c0.426 0.81 0.64 1.706 0.64 2.688 0 1.066-0.256 2.038-0.768 2.912s-1.26 1.568-2.24 2.080c-0.96 0.512-2.102 0.768-3.424 0.768zM76.272 16.128c0.832 0 1.514-0.224 2.048-0.672 0.554-0.448 0.832-1.088 0.832-1.92s-0.278-1.472-0.832-1.92c-0.534-0.448-1.216-0.672-2.048-0.672-0.876 0-1.58 0.224-2.112 0.672-0.534 0.448-0.8 1.088-0.8 1.92s0.266 1.472 0.8 1.92c0.532 0.448 1.236 0.672 2.112 0.672zM72.432 25.952c0 0.79 0.362 1.376 1.088 1.76 0.746 0.406 1.652 0.608 2.72 0.608 1.024 0 1.856-0.214 2.496-0.64 0.64-0.406 0.96-0.96 0.96-1.664 0-0.011 0-0.024 0-0.038 0-0.559-0.247-1.060-0.638-1.401l-0.002-0.002c-0.406-0.384-1.228-0.62-2.464-0.704-0.928-0.066-1.762-0.168-2.583-0.31l0.151 0.022c-0.62 0.34-1.068 0.714-1.344 1.12-0.256 0.406-0.384 0.82-0.384 1.248zM89.114 31.040l3.68-8.096h-0.96l-6.176-14.816h4.448l4.448 11.168 4.64-11.168h4.352l-10.080 22.912h-4.352zM104.906 24.224c-0.746 0-1.366-0.234-1.856-0.704-0.435-0.421-0.704-1.010-0.704-1.661 0-0.012 0-0.024 0-0.036l-0 0.002c0-0.682 0.234-1.26 0.704-1.728 0.49-0.47 1.11-0.704 1.856-0.704s1.354 0.234 1.824 0.704c0.49 0.47 0.736 1.046 0.736 1.728 0 0.66-0.244 1.226-0.736 1.696-0.47 0.47-1.076 0.704-1.824 0.704zM110.93 24v-12.448h-2.176v-3.424h2.176v-1.856c0-1.92 0.48-3.286 1.44-4.096 0.98-0.81 2.304-1.216 3.968-1.216h1.76v3.488h-1.12c-0.704 0-1.206 0.14-1.504 0.416-0.3 0.278-0.448 0.746-0.448 1.408v1.856h3.424v3.424h-3.424v12.448h-4.096zM121.682 24v-23.040h4.096v23.040h-4.098zM136.95 24.384c-1.534 0-2.92-0.352-4.16-1.056-1.217-0.71-2.202-1.695-2.892-2.874l-0.020-0.038c-0.702-1.26-1.054-2.71-1.054-4.352s0.36-3.082 1.086-4.32c0.726-1.26 1.698-2.24 2.914-2.944 1.236-0.704 2.622-1.056 4.16-1.056 1.514 0 2.88 0.352 4.094 1.056 1.232 0.704 2.222 1.704 2.894 2.906l0.020 0.038c0.724 1.238 1.088 2.678 1.088 4.32s-0.364 3.094-1.088 4.352c-0.698 1.226-1.686 2.214-2.875 2.892l-0.037 0.020c-1.158 0.665-2.547 1.057-4.026 1.057-0.036 0-0.073-0-0.109-0.001l0.006 0zM136.95 20.832c1.068 0 1.996-0.394 2.786-1.184 0.788-0.81 1.184-2.006 1.184-3.584 0-1.58-0.396-2.762-1.184-3.552-0.79-0.81-1.708-1.216-2.752-1.216-1.088 0-2.028 0.406-2.818 1.216-0.766 0.79-1.152 1.974-1.152 3.552 0 1.58 0.384 2.774 1.152 3.584 0.79 0.79 1.72 1.184 2.784 1.184zM150.644 24l-4.64-15.872h4.064l2.752 11.424 3.2-11.424h4.544l3.2 11.424 2.784-11.424h4.064l-4.672 15.872h-4.256l-3.392-11.872-3.392 11.872h-4.256z"></path>
</symbol>
<symbol id="logo-icon-big" viewBox="0 0 170 32">
<path d="M8.649 24.384c-1.6 0-3.018-0.342-4.256-1.024-1.229-0.68-2.219-1.66-2.893-2.843l-0.019-0.037c-0.704-1.238-1.056-2.666-1.056-4.288 0-1.642 0.342-3.104 1.024-4.384 0.704-1.28 1.664-2.272 2.88-2.976 1.238-0.726 2.688-1.088 4.352-1.088 1.558 0 2.934 0.342 4.128 1.024 1.178 0.672 2.125 1.629 2.765 2.779l0.019 0.037c0.682 1.174 1.024 2.486 1.024 3.936 0 0.234-0.011 0.48-0.032 0.736 0 0.256-0.011 0.522-0.032 0.8h-12.064c0.086 1.238 0.512 2.208 1.28 2.912 0.789 0.704 1.738 1.056 2.848 1.056 0.832 0 1.526-0.182 2.080-0.544s0.991-0.862 1.271-1.451l0.009-0.021h4.16c-0.298 1.002-0.8 1.92-1.504 2.752-0.691 0.81-1.546 1.46-2.515 1.902l-0.045 0.018c-1.002 0.469-2.144 0.704-3.424 0.704zM8.681 11.072c-1.002 0-1.888 0.288-2.656 0.864-0.768 0.554-1.258 1.408-1.472 2.56h7.904c-0.064-1.046-0.448-1.878-1.152-2.496s-1.578-0.928-2.624-0.928zM19.422 24v-15.872h3.616l0.32 2.688c0.493-0.938 1.212-1.698 2.087-2.226l0.025-0.014c0.939-0.554 2.038-0.832 3.296-0.832 1.963 0 3.488 0.618 4.576 1.856s1.632 3.051 1.632 5.44v8.96h-4.096v-8.576c0-1.366-0.277-2.411-0.832-3.136-0.554-0.726-1.418-1.088-2.592-1.088-1.152 0-2.101 0.406-2.848 1.216-0.725 0.811-1.088 1.942-1.088 3.392v8.192h-4.096zM45.963 24.384c-1.6 0-3.019-0.342-4.257-1.024-1.229-0.68-2.218-1.66-2.892-2.843l-0.019-0.037c-0.704-1.238-1.056-2.666-1.056-4.288 0-1.642 0.341-3.104 1.023-4.384 0.704-1.28 1.664-2.272 2.88-2.976 1.238-0.726 2.688-1.088 4.353-1.088 1.557 0 2.933 0.342 4.127 1.024 1.178 0.672 2.125 1.629 2.766 2.779l0.019 0.037c0.682 1.174 1.024 2.486 1.024 3.936 0 0.234-0.011 0.48-0.033 0.736 0 0.256-0.010 0.522-0.032 0.8h-12.063c0.086 1.238 0.513 2.208 1.28 2.912 0.79 0.704 1.739 1.056 2.848 1.056 0.832 0 1.526-0.182 2.080-0.544s0.991-0.862 1.271-1.451l0.009-0.021h4.16c-0.297 1.002-0.8 1.92-1.504 2.752-0.691 0.81-1.546 1.46-2.515 1.902l-0.045 0.018c-1.002 0.469-2.144 0.704-3.423 0.704zM45.994 11.072c-1.002 0-1.887 0.288-2.655 0.864-0.768 0.554-1.259 1.408-1.472 2.56h7.904c-0.064-1.046-0.448-1.878-1.152-2.496-0.705-0.618-1.579-0.928-2.625-0.928zM56.737 24v-15.872h3.648l0.384 2.976c0.565-1.009 1.356-1.83 2.308-2.416l0.028-0.016c1.002-0.618 2.176-0.928 3.52-0.928v4.32h-1.152c-0.896 0-1.696 0.138-2.4 0.416-0.712 0.285-1.287 0.787-1.655 1.424l-0.008 0.016c-0.384 0.682-0.576 1.632-0.576 2.848v7.232h-4.096zM75.129 19.264c-0.019 0-0.042 0-0.065 0-0.738 0-1.455-0.093-2.138-0.269l0.059 0.013-1.184 1.184c0.363 0.192 0.854 0.352 1.472 0.48 0.619 0.128 1.622 0.256 3.008 0.384 2.112 0.192 3.648 0.694 4.608 1.504 0.96 0.811 1.44 1.931 1.44 3.36-0 0.985-0.287 1.903-0.78 2.676l0.012-0.020c-0.512 0.854-1.301 1.536-2.368 2.048-1.066 0.534-2.432 0.8-4.096 0.8-2.261 0-4.085-0.426-5.472-1.28-1.386-0.832-2.080-2.091-2.080-3.776 0-1.429 0.694-2.666 2.080-3.712-0.433-0.192-0.801-0.396-1.149-0.626l0.029 0.018c-0.297-0.212-0.558-0.432-0.8-0.672l0 0v-0.736l2.784-2.944c-1.237-1.088-1.856-2.486-1.856-4.192 0-1.066 0.256-2.038 0.768-2.912 0.534-0.874 1.28-1.568 2.24-2.080s2.123-0.768 3.488-0.768c0.896 0 1.728 0.128 2.496 0.384h6.016v2.496l-2.72 0.192c0.427 0.811 0.64 1.706 0.64 2.688 0 0.019 0 0.042 0 0.065 0 1.049-0.285 2.031-0.783 2.873l0.014-0.026c-0.512 0.874-1.258 1.568-2.24 2.080-0.96 0.512-2.101 0.768-3.424 0.768zM75.129 16.128c0.832 0 1.515-0.224 2.048-0.672 0.555-0.448 0.832-1.088 0.832-1.92s-0.277-1.472-0.832-1.92c-0.533-0.448-1.216-0.672-2.048-0.672-0.874 0-1.578 0.224-2.112 0.672-0.533 0.448-0.8 1.088-0.8 1.92s0.267 1.472 0.8 1.92c0.534 0.448 1.238 0.672 2.112 0.672zM71.289 25.952c0 0.789 0.363 1.376 1.088 1.76 0.747 0.406 1.654 0.608 2.72 0.608 1.024 0 1.856-0.214 2.496-0.64 0.64-0.406 0.96-0.96 0.96-1.664 0-0.576-0.213-1.056-0.64-1.44-0.405-0.384-1.226-0.618-2.464-0.704-0.928-0.066-1.762-0.168-2.583-0.31l0.151 0.022c-0.618 0.342-1.066 0.714-1.344 1.12-0.236 0.351-0.378 0.782-0.384 1.247v0.001zM87.973 31.040l3.68-8.096h-0.96l-6.178-14.816h4.448l4.448 11.168 4.64-11.168h4.352l-10.080 22.912h-4.352zM103.765 24.224c-0.746 0-1.366-0.234-1.856-0.704-0.435-0.421-0.704-1.010-0.704-1.661 0-0.012 0-0.024 0-0.036l-0 0.002c0-0.682 0.234-1.258 0.704-1.728 0.491-0.469 1.109-0.704 1.856-0.704 0.746 0 1.354 0.234 1.824 0.704 0.491 0.469 0.736 1.046 0.736 1.728 0 0.008 0 0.017 0 0.026 0 0.661-0.283 1.255-0.734 1.669l-0.002 0.002c-0.469 0.469-1.078 0.704-1.824 0.704zM109.787 24v-12.448h-2.176v-3.424h2.176v-1.856c0-1.92 0.48-3.286 1.44-4.096 0.983-0.811 2.305-1.216 3.969-1.216h1.76v3.488h-1.12c-0.704 0-1.206 0.138-1.504 0.416-0.299 0.278-0.449 0.746-0.449 1.408v1.856h3.425v3.424h-3.425v12.448h-4.096zM120.541 24v-23.040h4.096v23.040h-4.096zM135.809 24.384c-1.536 0-2.922-0.352-4.16-1.056-1.216-0.71-2.202-1.696-2.892-2.874l-0.020-0.038c-0.704-1.258-1.056-2.709-1.056-4.352 0-1.642 0.362-3.082 1.088-4.32 0.704-1.231 1.69-2.228 2.874-2.924l0.037-0.020c1.238-0.704 2.624-1.056 4.16-1.056 1.514 0 2.88 0.352 4.096 1.056 1.231 0.704 2.221 1.704 2.892 2.906l0.020 0.038c0.726 1.238 1.088 2.678 1.088 4.32s-0.362 3.094-1.088 4.352c-0.698 1.226-1.686 2.214-2.875 2.892l-0.037 0.020c-1.238 0.704-2.614 1.056-4.128 1.056zM135.809 20.832c1.066 0 1.994-0.394 2.784-1.184 0.79-0.811 1.184-2.006 1.184-3.584s-0.394-2.762-1.184-3.552c-0.79-0.811-1.706-1.216-2.752-1.216-1.088 0-2.026 0.406-2.816 1.216-0.768 0.789-1.152 1.974-1.152 3.552s0.384 2.774 1.152 3.584c0.79 0.789 1.718 1.184 2.784 1.184zM149.499 24l-4.64-15.872h4.064l2.752 11.424 3.2-11.424h4.544l3.2 11.424 2.784-11.424h4.064l-4.672 15.872h-4.256l-3.392-11.872-3.392 11.872h-4.256z"></path>
</symbol>
<symbol id="logo-menu-icon" viewBox="0 0 172 32">
<path fill="#f6f6f6" style="fill: var(--color2, #f6f6f6)" d="M9.792 24.384c-1.6 0-3.020-0.34-4.256-1.024-1.229-0.68-2.219-1.66-2.893-2.843l-0.019-0.037c-0.704-1.238-1.056-2.666-1.056-4.288 0-1.642 0.34-3.104 1.024-4.384 0.679-1.249 1.659-2.26 2.844-2.957l0.036-0.019c1.238-0.726 2.688-1.088 4.352-1.088 1.558 0 2.934 0.34 4.128 1.024 1.194 0.682 2.122 1.62 2.784 2.816 0.682 1.174 1.024 2.486 1.024 3.936 0 0.234-0.010 0.48-0.032 0.736 0 0.256-0.010 0.522-0.032 0.8h-12.064c0.086 1.238 0.512 2.208 1.28 2.912 0.79 0.704 1.74 1.056 2.848 1.056 0.832 0 1.526-0.18 2.080-0.544s0.991-0.862 1.271-1.451l0.009-0.021h4.16c-0.3 1.002-0.8 1.92-1.504 2.752-0.691 0.81-1.546 1.46-2.515 1.902l-0.045 0.018c-1.002 0.47-2.144 0.704-3.424 0.704zM9.824 11.072c-1.002 0-1.888 0.288-2.656 0.864-0.768 0.554-1.26 1.408-1.472 2.56h7.904c-0.064-1.046-0.448-1.878-1.152-2.496-0.704-0.62-1.58-0.928-2.624-0.928zM20.564 24v-15.872h3.618l0.32 2.688c0.49-0.94 1.194-1.686 2.112-2.24 0.938-0.554 2.036-0.832 3.294-0.832 1.964 0 3.488 0.62 4.576 1.856 1.088 1.238 1.632 3.050 1.632 5.44v8.96h-4.094v-8.576c0-1.366-0.28-2.41-0.832-3.136-0.556-0.726-1.42-1.088-2.592-1.088-1.152 0-2.102 0.406-2.85 1.216-0.724 0.81-1.086 1.94-1.086 3.392v8.192h-4.096zM47.104 24.384c-1.6 0-3.016-0.34-4.254-1.024-1.229-0.68-2.219-1.66-2.893-2.843l-0.019-0.037c-0.704-1.238-1.056-2.666-1.056-4.288 0-1.642 0.34-3.104 1.024-4.384 0.679-1.249 1.659-2.26 2.844-2.957l0.036-0.019c1.238-0.726 2.688-1.088 4.352-1.088 1.558 0 2.932 0.34 4.128 1.024 1.194 0.682 2.122 1.62 2.784 2.816 0.682 1.174 1.024 2.486 1.024 3.936 0 0.234-0.010 0.48-0.032 0.736 0 0.256-0.012 0.522-0.032 0.8h-12.064c0.086 1.238 0.512 2.208 1.28 2.912 0.79 0.704 1.74 1.056 2.848 1.056 0.832 0 1.524-0.18 2.080-0.544 0.554-0.363 0.991-0.862 1.271-1.451l0.009-0.021h4.16c-0.3 1.002-0.8 1.92-1.504 2.752-0.691 0.81-1.546 1.46-2.515 1.901l-0.045 0.018c-1.004 0.47-2.144 0.704-3.424 0.704zM47.138 11.072c-1.004 0-1.888 0.288-2.656 0.864-0.768 0.554-1.26 1.408-1.472 2.56h7.904c-0.064-1.046-0.448-1.878-1.152-2.496-0.704-0.62-1.58-0.928-2.624-0.928zM57.878 24v-15.872h3.648l0.384 2.976c0.565-1.009 1.356-1.83 2.308-2.416l0.028-0.016c1.004-0.62 2.176-0.928 3.52-0.928v4.32h-1.152c-0.896 0-1.696 0.14-2.4 0.416-0.704 0.278-1.258 0.758-1.664 1.44-0.384 0.682-0.576 1.632-0.576 2.848v7.232h-4.094zM76.272 19.264c-0.019 0-0.042 0-0.065 0-0.738 0-1.455-0.093-2.138-0.269l0.059 0.013-1.184 1.184c0.362 0.192 0.852 0.352 1.472 0.48 0.618 0.128 1.62 0.256 3.008 0.384 2.112 0.192 3.648 0.694 4.608 1.504s1.44 1.93 1.44 3.36c0 0.94-0.256 1.824-0.768 2.656-0.512 0.854-1.302 1.536-2.368 2.048-1.068 0.534-2.432 0.8-4.096 0.8-2.262 0-4.086-0.426-5.472-1.28-1.388-0.832-2.080-2.090-2.080-3.776 0-1.43 0.692-2.666 2.080-3.712-0.433-0.192-0.801-0.396-1.149-0.626l0.029 0.018c-0.297-0.212-0.558-0.433-0.8-0.672l0 0v-0.736l2.784-2.944c-1.238-1.088-1.856-2.486-1.856-4.192 0-1.066 0.256-2.038 0.768-2.912 0.532-0.874 1.28-1.568 2.24-2.080s2.122-0.768 3.488-0.768c0.896 0 1.728 0.128 2.496 0.384h6.016v2.496l-2.72 0.192c0.426 0.81 0.64 1.706 0.64 2.688 0 1.066-0.256 2.038-0.768 2.912s-1.26 1.568-2.24 2.080c-0.96 0.512-2.102 0.768-3.424 0.768zM76.272 16.128c0.832 0 1.514-0.224 2.048-0.672 0.554-0.448 0.832-1.088 0.832-1.92s-0.278-1.472-0.832-1.92c-0.534-0.448-1.216-0.672-2.048-0.672-0.876 0-1.58 0.224-2.112 0.672-0.534 0.448-0.8 1.088-0.8 1.92s0.266 1.472 0.8 1.92c0.532 0.448 1.236 0.672 2.112 0.672zM72.432 25.952c0 0.79 0.362 1.376 1.088 1.76 0.746 0.406 1.652 0.608 2.72 0.608 1.024 0 1.856-0.214 2.496-0.64 0.64-0.406 0.96-0.96 0.96-1.664 0-0.011 0-0.024 0-0.038 0-0.559-0.247-1.060-0.638-1.401l-0.002-0.002c-0.406-0.384-1.228-0.62-2.464-0.704-0.928-0.066-1.762-0.168-2.583-0.31l0.151 0.022c-0.62 0.34-1.068 0.714-1.344 1.12-0.256 0.406-0.384 0.82-0.384 1.248zM89.114 31.040l3.68-8.096h-0.96l-6.176-14.816h4.448l4.448 11.168 4.64-11.168h4.352l-10.080 22.912h-4.352zM104.906 24.224c-0.746 0-1.366-0.234-1.856-0.704-0.435-0.421-0.704-1.010-0.704-1.661 0-0.012 0-0.024 0-0.036l-0 0.002c0-0.682 0.234-1.26 0.704-1.728 0.49-0.47 1.11-0.704 1.856-0.704s1.354 0.234 1.824 0.704c0.49 0.47 0.736 1.046 0.736 1.728 0 0.66-0.244 1.226-0.736 1.696-0.47 0.47-1.076 0.704-1.824 0.704zM110.93 24v-12.448h-2.176v-3.424h2.176v-1.856c0-1.92 0.48-3.286 1.44-4.096 0.98-0.81 2.304-1.216 3.968-1.216h1.76v3.488h-1.12c-0.704 0-1.206 0.14-1.504 0.416-0.3 0.278-0.448 0.746-0.448 1.408v1.856h3.424v3.424h-3.424v12.448h-4.096zM121.682 24v-23.040h4.096v23.040h-4.098zM136.95 24.384c-1.534 0-2.92-0.352-4.16-1.056-1.217-0.71-2.202-1.695-2.892-2.874l-0.020-0.038c-0.702-1.26-1.054-2.71-1.054-4.352s0.36-3.082 1.086-4.32c0.726-1.26 1.698-2.24 2.914-2.944 1.236-0.704 2.622-1.056 4.16-1.056 1.514 0 2.88 0.352 4.094 1.056 1.232 0.704 2.222 1.704 2.894 2.906l0.020 0.038c0.724 1.238 1.088 2.678 1.088 4.32s-0.364 3.094-1.088 4.352c-0.698 1.226-1.686 2.214-2.875 2.892l-0.037 0.020c-1.158 0.665-2.547 1.057-4.026 1.057-0.036 0-0.073-0-0.109-0.001l0.006 0zM136.95 20.832c1.068 0 1.996-0.394 2.786-1.184 0.788-0.81 1.184-2.006 1.184-3.584 0-1.58-0.396-2.762-1.184-3.552-0.79-0.81-1.708-1.216-2.752-1.216-1.088 0-2.028 0.406-2.818 1.216-0.766 0.79-1.152 1.974-1.152 3.552 0 1.58 0.384 2.774 1.152 3.584 0.79 0.79 1.72 1.184 2.784 1.184zM150.644 24l-4.64-15.872h4.064l2.752 11.424 3.2-11.424h4.544l3.2 11.424 2.784-11.424h4.064l-4.672 15.872h-4.256l-3.392-11.872-3.392 11.872h-4.256z"></path>
</symbol>
<symbol id="youtube-icon" viewBox="0 0 32 32">
<path fill="none" stroke="#7e847f" style="stroke: var(--color5, #7e847f)" stroke-linejoin="miter" stroke-linecap="butt" stroke-miterlimit="4" stroke-width="0.7273" d="M7.273 0.364h17.455c3.816 0 6.909 3.093 6.909 6.909v17.455c0 3.816-3.093 6.909-6.909 6.909h-17.455c-3.816 0-6.909-3.093-6.909-6.909v-17.455c0-3.816 3.093-6.909 6.909-6.909z"></path>
<path fill="#7e847f" style="fill: var(--color5, #7e847f)" opacity="0.8" d="M21.244 9.636c-0.865-0.051-2.647-0.102-5.345-0.102h-0.356c-2.596 0-4.327 0.051-5.193 0.153-1.171 0.102-1.985 0.407-2.444 0.815-0.407 0.356-0.713 1.018-0.815 1.884-0.051 0.56-0.102 1.731-0.102 3.513v0.255c0 1.68 0.051 2.851 0.153 3.411 0.153 0.815 0.407 1.425 0.916 1.782 0.509 0.407 1.375 0.662 2.596 0.764 0.865 0.051 2.647 0.102 5.345 0.102h0.356c2.596 0 4.327-0.051 5.193-0.153 1.171-0.102 1.985-0.407 2.444-0.815 0.407-0.356 0.713-1.018 0.815-1.884 0.051-0.56 0.102-1.731 0.102-3.513v-0.255c0-1.68-0.051-2.851-0.153-3.411-0.153-0.815-0.407-1.425-0.916-1.782-0.509-0.407-1.375-0.662-2.596-0.764zM19.258 15.898l-5.6 3.36v-6.72l5.6 3.36z"></path>
</symbol>
<symbol id="youtube-menu-icon" viewBox="0 0 32 32">
<path fill="none" stroke="#f6f6f6" style="stroke: var(--color2, #f6f6f6)" stroke-linejoin="miter" stroke-linecap="butt" stroke-miterlimit="4" stroke-width="0.7805" d="M7.805 0.39h16.39c4.095 0 7.415 3.32 7.415 7.415v16.39c0 4.095-3.32 7.415-7.415 7.415h-16.39c-4.095 0-7.415-3.32-7.415-7.415v-16.39c0-4.095 3.32-7.415 7.415-7.415z"></path>
<path fill="#f6f6f6" style="fill: var(--color2, #f6f6f6)" opacity="0.8" d="M21.025 9.902c-0.83-0.048-2.537-0.098-5.122-0.098h-0.342c-2.487 0-4.146 0.049-4.976 0.147-1.122 0.098-1.902 0.39-2.341 0.78-0.39 0.341-0.682 0.976-0.78 1.805-0.048 0.537-0.097 1.659-0.097 3.366v0.244c0 1.61 0.048 2.732 0.146 3.269 0.146 0.78 0.39 1.366 0.878 1.707 0.488 0.39 1.317 0.635 2.488 0.732 0.829 0.048 2.537 0.098 5.122 0.098h0.342c2.487 0 4.146-0.049 4.976-0.147 1.122-0.098 1.902-0.39 2.341-0.78 0.39-0.341 0.683-0.976 0.78-1.805 0.048-0.537 0.098-1.659 0.098-3.366v-0.243c0-1.61-0.049-2.732-0.147-3.269-0.147-0.78-0.39-1.366-0.878-1.707-0.488-0.39-1.317-0.635-2.488-0.732zM19.122 15.902l-5.366 3.22v-6.439l5.366 3.22z"></path>
</symbol>
<symbol id="fluent-icon" viewBox="0 0 32 32">
<path fill="#f6f6f6" style="fill: var(--color1, #f6f6f6)" d="M7.36 9.143h-1.92c-0.532 0-0.96 0.459-0.96 1.029v4.457h-0.96c-0.176 0-0.32 0.154-0.32 0.343v2.057c0 0.188 0.144 0.343 0.32 0.343h0.96v4.457c0 0.57 0.428 1.028 0.96 1.028h1.92c0.532 0 0.96-0.459 0.96-1.028v-11.657c0-0.57-0.428-1.029-0.96-1.029zM28.48 14.629h-0.96v-4.457c0-0.57-0.428-1.029-0.96-1.029h-1.92c-0.532 0-0.96 0.459-0.96 1.029v11.657c0 0.57 0.428 1.028 0.96 1.028h1.92c0.532 0 0.96-0.459 0.96-1.028v-4.457h0.96c0.176 0 0.32-0.154 0.32-0.343v-2.057c0-0.189-0.144-0.343-0.32-0.343zM21.44 6.4h-1.92c-0.532 0-0.96 0.459-0.96 1.029v7.2h-5.12v-7.2c0-0.57-0.428-1.029-0.96-1.029h-1.92c-0.532 0-0.96 0.459-0.96 1.029v17.143c0 0.57 0.428 1.029 0.96 1.029h1.92c0.532 0 0.96-0.459 0.96-1.029v-7.2h5.12v7.2c0 0.57 0.428 1.029 0.96 1.029h1.92c0.532 0 0.96-0.459 0.96-1.029v-17.143c0-0.57-0.428-1.029-0.96-1.029z"></path>
</symbol>
</defs>
</svg>
