<svg aria-hidden="true" style="position: absolute; width: 0; height: 0; overflow: hidden;" version="1.1" xmlns="http://www.w3.org/2000/svg" xmlns:xlink="http://www.w3.org/1999/xlink">
<defs>
<symbol id="icon-sport-tag" viewBox="0 0 89 32">
<path fill="none" stroke="#f6f6f6" style="stroke: var(--color1, #f6f6f6)" stroke-linejoin="miter" stroke-linecap="butt" stroke-miterlimit="4" stroke-width="1.4545" d="M16 0.727h56.727c8.435 0 15.273 6.838 15.273 15.273s-6.838 15.273-15.273 15.273h-56.727c-8.435 0-15.273-6.838-15.273-15.273s6.838-15.273 15.273-15.273z"></path>
<path fill="#f6f6f6"  style="fill: var(--color1, #f6f6f6)" d="M17.076 21.818l0.751-3.439h-2.479v-1.309h2.758l0.593-2.845h-2.618v-1.292h2.897l0.733-3.439h1.396l-0.733 3.439h3.753l0.733-3.439h1.379l-0.733 3.439h2.426v1.292h-2.705l-0.593 2.845h2.531v1.309h-2.81l-0.751 3.439h-1.396l0.751-3.439h-3.753l-0.733 3.439h-1.396zM19.485 17.071h3.753l0.611-2.845h-3.753l-0.611 2.845zM33.945 22.028c-0.896 0-1.676-0.163-2.339-0.489-0.64-0.306-1.162-0.772-1.527-1.347l-0.009-0.015c-0.361-0.582-0.541-1.257-0.541-2.025h1.536c0 0.477 0.111 0.919 0.332 1.327 0.221 0.396 0.541 0.716 0.96 0.96 0.431 0.233 0.96 0.349 1.588 0.349 0.826 0 1.466-0.198 1.92-0.593s0.681-0.89 0.681-1.484c0-0.489-0.105-0.879-0.314-1.169-0.221-0.31-0.508-0.558-0.842-0.727l-0.013-0.006c-0.347-0.185-0.752-0.351-1.175-0.477l-0.047-0.012c-0.454-0.14-0.931-0.297-1.431-0.471-0.943-0.326-1.641-0.727-2.095-1.204-0.454-0.489-0.681-1.123-0.681-1.903-0.001-0.035-0.002-0.076-0.002-0.117 0-0.596 0.17-1.153 0.464-1.624l-0.008 0.013c0.314-0.512 0.756-0.908 1.327-1.187 0.582-0.291 1.268-0.436 2.060-0.436 0.78 0 1.455 0.145 2.025 0.436 1.101 0.546 1.846 1.66 1.85 2.949v0.001h-1.536c0-0.337-0.087-0.669-0.262-0.995-0.186-0.348-0.46-0.627-0.793-0.815l-0.010-0.005c-0.349-0.209-0.791-0.314-1.327-0.314-0.663-0.012-1.21 0.157-1.641 0.506-0.419 0.349-0.628 0.832-0.628 1.449 0 0.524 0.145 0.925 0.436 1.204 0.303 0.279 0.721 0.512 1.257 0.698 0.535 0.175 1.152 0.378 1.85 0.611 0.582 0.209 1.105 0.454 1.571 0.733s0.826 0.64 1.082 1.082c0.268 0.442 0.401 1.007 0.401 1.693 0 0.582-0.151 1.135-0.454 1.658-0.303 0.512-0.762 0.931-1.379 1.257-0.605 0.326-1.367 0.489-2.287 0.489zM40.057 25.658v-12.497h1.327l0.14 1.431c0.279-0.419 0.675-0.797 1.187-1.135 0.524-0.337 1.187-0.506 1.99-0.506 0.861 0 1.612 0.198 2.252 0.593s1.135 0.937 1.484 1.623c0.361 0.687 0.541 1.466 0.541 2.339s-0.18 1.652-0.541 2.339c-0.349 0.675-0.849 1.21-1.501 1.606-0.64 0.384-1.391 0.576-2.252 0.576-0.71 0-1.344-0.145-1.903-0.436-0.547-0.291-0.966-0.698-1.257-1.222v5.289h-1.466zM44.525 20.753c0.582 0 1.094-0.134 1.536-0.401 0.442-0.279 0.791-0.663 1.047-1.152s0.384-1.059 0.384-1.711c0-0.652-0.128-1.222-0.384-1.711-0.243-0.473-0.6-0.858-1.035-1.128l-0.012-0.007c-0.42-0.263-0.931-0.419-1.478-0.419-0.020 0-0.041 0-0.061 0.001l0.003-0c-0.582 0-1.094 0.14-1.536 0.419-0.448 0.277-0.804 0.661-1.040 1.119l-0.007 0.016c-0.256 0.489-0.384 1.059-0.384 1.711s0.128 1.222 0.384 1.711c0.256 0.489 0.605 0.873 1.047 1.152 0.442 0.268 0.954 0.401 1.536 0.401zM54.961 22.028c-0.815 0-1.548-0.186-2.199-0.559-0.654-0.378-1.182-0.911-1.543-1.55l-0.011-0.020c-0.372-0.687-0.559-1.489-0.559-2.409s0.192-1.716 0.576-2.391c0.384-0.687 0.902-1.216 1.553-1.588 0.622-0.352 1.367-0.559 2.159-0.559 0.020 0 0.040 0 0.060 0l-0.003-0c0.815 0 1.548 0.186 2.199 0.559s1.164 0.902 1.536 1.588c0.384 0.675 0.576 1.472 0.576 2.391s-0.192 1.722-0.576 2.409c-0.375 0.663-0.908 1.196-1.551 1.56l-0.020 0.011c-0.614 0.352-1.35 0.559-2.134 0.559-0.023 0-0.046-0-0.069-0.001l0.003 0zM54.961 20.771c0.5 0 0.966-0.122 1.396-0.367 0.447-0.264 0.804-0.638 1.040-1.085l0.007-0.015c0.268-0.489 0.401-1.094 0.401-1.815s-0.134-1.327-0.401-1.815c-0.234-0.464-0.586-0.838-1.018-1.093l-0.012-0.007c-0.394-0.23-0.867-0.367-1.371-0.367-0.003 0-0.005 0-0.008 0h0c-0.5 0-0.966 0.122-1.396 0.367-0.447 0.264-0.804 0.638-1.040 1.085l-0.007 0.015c-0.268 0.489-0.401 1.094-0.401 1.815s0.134 1.327 0.401 1.815c0.268 0.489 0.611 0.855 1.030 1.1 0.431 0.244 0.89 0.367 1.379 0.367zM61.347 21.818v-8.657h1.327l0.122 1.658c0.268-0.57 0.675-1.024 1.222-1.361s1.222-0.506 2.025-0.506v1.536h-0.401c-0.512 0-0.983 0.093-1.414 0.279-0.431 0.175-0.774 0.477-1.030 0.908s-0.384 1.024-0.384 1.78v4.364h-1.466zM71.108 21.818c-0.791 0-1.414-0.192-1.868-0.576s-0.681-1.076-0.681-2.077v-4.765h-1.501v-1.239h1.501l0.192-2.077h1.274v2.077h2.548v1.239h-2.548v4.765c0 0.547 0.111 0.919 0.332 1.117 0.221 0.186 0.611 0.279 1.169 0.279h0.908v1.257h-1.327z"></path>
</symbol>
<symbol id="icon-workout-tag" viewBox="0 0 112 32">
<path fill="none" stroke="#f6f6f6" style="stroke: var(--color1, #f6f6f6)" stroke-linejoin="miter" stroke-linecap="butt" stroke-miterlimit="4" stroke-width="1.4545" d="M16 0.727h80c8.435 0 15.273 6.838 15.273 15.273s-6.838 15.273-15.273 15.273h-80c-8.435 0-15.273-6.838-15.273-15.273s6.838-15.273 15.273-15.273z"></path>
<path fill="#f6f6f6" style="fill: var(--color1, #f6f6f6)" d="M17.076 21.818l0.751-3.439h-2.479v-1.309h2.758l0.593-2.845h-2.618v-1.292h2.897l0.733-3.439h1.396l-0.733 3.439h3.753l0.733-3.439h1.379l-0.733 3.439h2.426v1.292h-2.705l-0.593 2.845h2.531v1.309h-2.81l-0.751 3.439h-1.396l0.751-3.439h-3.753l-0.733 3.439h-1.396zM19.485 17.071h3.753l0.611-2.845h-3.753l-0.611 2.845zM32.566 21.836l-3.351-12.236h1.571l2.636 10.49 3.002-10.49h1.623l2.915 10.49 2.671-10.49h1.571l-3.421 12.218h-1.676l-2.913-10.089-2.986 10.089-1.641 0.017zM49.9 22.028c-0.815 0-1.548-0.186-2.199-0.559-0.654-0.378-1.182-0.911-1.543-1.55l-0.011-0.020c-0.372-0.687-0.559-1.489-0.559-2.409s0.192-1.716 0.576-2.391c0.384-0.687 0.902-1.216 1.553-1.588 0.622-0.352 1.367-0.559 2.159-0.559 0.020 0 0.040 0 0.060 0l-0.003-0c0.815 0 1.548 0.186 2.199 0.559s1.164 0.902 1.536 1.588c0.384 0.675 0.576 1.472 0.576 2.391s-0.192 1.722-0.576 2.409c-0.375 0.663-0.908 1.196-1.551 1.56l-0.020 0.011c-0.614 0.352-1.35 0.559-2.134 0.559-0.023 0-0.046-0-0.069-0.001l0.003 0zM49.9 20.771c0.5 0 0.966-0.122 1.396-0.367 0.447-0.264 0.804-0.638 1.040-1.085l0.007-0.015c0.268-0.489 0.401-1.094 0.401-1.815s-0.134-1.327-0.401-1.815c-0.234-0.464-0.586-0.838-1.018-1.093l-0.012-0.007c-0.394-0.23-0.867-0.367-1.371-0.367-0.003 0-0.005 0-0.008 0h0c-0.5 0-0.966 0.122-1.396 0.367-0.447 0.264-0.804 0.638-1.040 1.085l-0.007 0.015c-0.268 0.489-0.401 1.094-0.401 1.815s0.134 1.327 0.401 1.815c0.268 0.489 0.611 0.855 1.030 1.1 0.431 0.244 0.89 0.367 1.379 0.367zM56.285 21.818v-8.657h1.325l0.122 1.658c0.268-0.57 0.675-1.024 1.222-1.361s1.222-0.506 2.025-0.506v1.536h-0.401c-0.512 0-0.983 0.093-1.414 0.279-0.431 0.175-0.774 0.477-1.030 0.908s-0.384 1.024-0.384 1.78v4.364h-1.466zM62.625 21.818v-12.567h1.466v7.558l3.543-3.648h1.798l-3.84 3.91 4.327 4.748h-1.868l-3.962-4.486v4.486h-1.466zM74.735 22.028c-0.815 0-1.548-0.186-2.199-0.559-0.654-0.378-1.182-0.911-1.543-1.55l-0.011-0.020c-0.372-0.687-0.559-1.489-0.559-2.409s0.192-1.716 0.576-2.391c0.384-0.687 0.902-1.216 1.553-1.588 0.622-0.352 1.367-0.559 2.159-0.559 0.020 0 0.040 0 0.060 0l-0.003-0c0.815 0 1.548 0.186 2.199 0.559s1.164 0.902 1.536 1.588c0.384 0.675 0.576 1.472 0.576 2.391s-0.192 1.722-0.576 2.409c-0.375 0.663-0.908 1.196-1.551 1.56l-0.020 0.011c-0.614 0.352-1.35 0.559-2.134 0.559-0.023 0-0.046-0-0.069-0.001l0.003 0zM74.735 20.771c0.5 0 0.966-0.122 1.396-0.367 0.447-0.264 0.804-0.638 1.040-1.085l0.007-0.015c0.268-0.489 0.401-1.094 0.401-1.815s-0.134-1.327-0.401-1.815c-0.234-0.464-0.586-0.838-1.018-1.093l-0.012-0.007c-0.394-0.23-0.867-0.367-1.371-0.367-0.003 0-0.005 0-0.008 0h0c-0.5 0-0.966 0.122-1.396 0.367-0.447 0.264-0.804 0.638-1.040 1.085l-0.007 0.015c-0.268 0.489-0.401 1.094-0.401 1.815s0.134 1.327 0.401 1.815c0.268 0.489 0.611 0.855 1.030 1.1 0.431 0.244 0.89 0.367 1.379 0.367zM84.278 22.028c-1.024 0-1.839-0.308-2.444-0.925-0.605-0.628-0.908-1.588-0.908-2.88v-5.062h1.466v4.905c0 1.804 0.739 2.705 2.217 2.705 0.756 0 1.379-0.268 1.868-0.803 0.5-0.547 0.751-1.321 0.751-2.321v-4.486h1.466v8.657h-1.327l-0.105-1.553c-0.268 0.547-0.669 0.977-1.204 1.292-0.524 0.314-1.117 0.471-1.78 0.471zM94.531 21.818c-0.791 0-1.414-0.192-1.868-0.576s-0.681-1.076-0.681-2.077v-4.765h-1.501v-1.239h1.501l0.192-2.077h1.274v2.077h2.548v1.239h-2.548v4.765c0 0.547 0.111 0.919 0.332 1.117 0.221 0.186 0.611 0.279 1.169 0.279h0.908v1.257h-1.327z"></path>
</symbol>
<symbol id="icon-healthy-tag" viewBox="0 0 105 32">
<path fill="none" stroke="#f6f6f6" style="stroke: var(--color1, #f6f6f6)" stroke-linejoin="miter" stroke-linecap="butt" stroke-miterlimit="4" stroke-width="1.4545" d="M16 0.727h72.727c8.435 0 15.273 6.838 15.273 15.273s-6.838 15.273-15.273 15.273h-72.727c-8.435 0-15.273-6.838-15.273-15.273s6.838-15.273 15.273-15.273z"></path>
<path fill="#f6f6f6" style="fill: var(--color1, #f6f6f6)" d="M17.076 21.818l0.751-3.439h-2.479v-1.309h2.758l0.593-2.845h-2.618v-1.292h2.897l0.733-3.439h1.396l-0.733 3.439h3.753l0.733-3.439h1.379l-0.733 3.439h2.426v1.292h-2.705l-0.593 2.845h2.531v1.309h-2.81l-0.751 3.439h-1.396l0.751-3.439h-3.753l-0.733 3.439h-1.396zM19.485 17.071h3.753l0.611-2.845h-3.753l-0.611 2.845zM30.052 21.818v-12.218h1.466v5.393h6.336v-5.393h1.466v12.218h-1.466v-5.62h-6.335v5.62h-1.466zM45.705 22.028c-0.826 0-1.559-0.186-2.199-0.559-0.641-0.389-1.156-0.927-1.508-1.567l-0.011-0.022c-0.361-0.675-0.541-1.472-0.541-2.391 0-0.908 0.18-1.699 0.541-2.374 0.346-0.668 0.858-1.209 1.483-1.579l0.018-0.010c0.652-0.384 1.402-0.576 2.252-0.576 0.838 0 1.559 0.192 2.164 0.576 0.617 0.372 1.088 0.867 1.414 1.484 0.309 0.57 0.491 1.249 0.491 1.969 0 0.142-0.007 0.283-0.021 0.422l0.001-0.018v0.436h-6.895c0.035 0.663 0.186 1.216 0.454 1.658 0.279 0.431 0.623 0.756 1.030 0.977 0.419 0.221 0.861 0.332 1.327 0.332 0.605 0 1.111-0.14 1.519-0.419s0.704-0.657 0.89-1.135h1.449c-0.238 0.816-0.709 1.502-1.336 2.001l-0.008 0.006c-0.652 0.524-1.489 0.785-2.513 0.785zM45.705 14.191c-0.698 0-1.321 0.215-1.868 0.646-0.535 0.419-0.844 1.036-0.925 1.85h5.446c-0.035-0.78-0.303-1.391-0.803-1.833s-1.117-0.663-1.85-0.663zM54.63 22.028c-0.721 0-1.321-0.122-1.798-0.367-0.844-0.411-1.414-1.262-1.414-2.247 0-0.020 0-0.040 0.001-0.060l-0 0.003c0-0.884 0.337-1.565 1.012-2.042s1.594-0.716 2.758-0.716h2.339v-0.105c0-0.756-0.198-1.327-0.593-1.711-0.396-0.396-0.925-0.593-1.588-0.593-0.57 0-1.065 0.145-1.484 0.436-0.407 0.279-0.663 0.692-0.768 1.239h-1.501c0.058-0.628 0.268-1.158 0.628-1.588 0.372-0.431 0.832-0.756 1.379-0.977 0.547-0.233 1.129-0.349 1.745-0.349 1.21 0 2.118 0.326 2.723 0.977 0.617 0.64 0.925 1.495 0.925 2.566v5.324h-1.309l-0.087-1.553c-0.262 0.509-0.628 0.93-1.072 1.25l-0.010 0.007c-0.465 0.337-1.094 0.506-1.885 0.506zM54.857 20.788c0.559 0 1.036-0.145 1.431-0.436 0.407-0.291 0.716-0.669 0.925-1.135 0.198-0.428 0.314-0.929 0.314-1.457 0-0.003 0-0.007 0-0.010v0-0.017h-2.217c-0.861 0-1.472 0.151-1.833 0.454-0.349 0.291-0.524 0.657-0.524 1.1 0 0.454 0.163 0.82 0.489 1.1 0.337 0.268 0.809 0.401 1.414 0.401zM61.193 21.818v-12.567h1.466v12.567h-1.466zM68.483 21.818c-0.791 0-1.414-0.192-1.868-0.576s-0.681-1.076-0.681-2.077v-4.765h-1.501v-1.239h1.501l0.192-2.077h1.274v2.077h2.548v1.239h-2.548v4.765c0 0.547 0.111 0.919 0.332 1.117 0.221 0.186 0.611 0.279 1.169 0.279h0.908v1.257h-1.327zM71.812 21.818v-12.567h1.466v5.393c0.291-0.535 0.704-0.948 1.239-1.239 0.495-0.285 1.088-0.454 1.721-0.454 0.009 0 0.017 0 0.026 0h-0.001c1.001 0 1.804 0.314 2.409 0.943 0.605 0.617 0.908 1.571 0.908 2.863v5.062h-1.449v-4.905c0-1.804-0.727-2.705-2.182-2.705-0.756 0-1.391 0.273-1.903 0.82-0.512 0.535-0.768 1.303-0.768 2.304v4.486h-1.466zM82.489 25.658l2.145-4.678h-0.506l-3.439-7.82h1.588l2.863 6.737 3.037-6.737h1.519l-5.673 12.497h-1.536z"></path>
</symbol>
<symbol id="icon-diet-tag" viewBox="0 0 77 32">
<path fill="none"  stroke="#f6f6f6" style="stroke: var(--color1, #f6f6f6)" stroke-linejoin="miter" stroke-linecap="butt" stroke-miterlimit="4" stroke-width="1.4545" d="M16 0.727h45.091c8.435 0 15.273 6.838 15.273 15.273s-6.838 15.273-15.273 15.273h-45.091c-8.435 0-15.273-6.838-15.273-15.273s6.838-15.273 15.273-15.273z"></path>
<path fill="#f6f6f6"  style="fill: var(--color1, #f6f6f6)" d="M17.076 21.818l0.751-3.439h-2.479v-1.309h2.758l0.593-2.845h-2.618v-1.292h2.897l0.733-3.439h1.396l-0.733 3.439h3.753l0.733-3.439h1.379l-0.733 3.439h2.426v1.292h-2.705l-0.593 2.845h2.531v1.309h-2.81l-0.751 3.439h-1.396l0.751-3.439h-3.753l-0.733 3.439h-1.396zM19.485 17.071h3.753l0.611-2.845h-3.753l-0.611 2.845zM30.052 21.818v-12.218h3.753c2.153 0 3.735 0.547 4.748 1.641 1.024 1.094 1.536 2.595 1.536 4.503 0 1.873-0.512 3.357-1.536 4.451-1.012 1.082-2.595 1.623-4.748 1.623h-3.753zM31.519 20.596h2.252c1.187 0 2.129-0.192 2.828-0.576 0.683-0.372 1.212-0.952 1.51-1.654l0.008-0.022c0.303-0.733 0.454-1.6 0.454-2.601 0-1.024-0.151-1.903-0.454-2.636-0.303-0.732-0.833-1.318-1.501-1.684l-0.017-0.009c-0.698-0.396-1.641-0.593-2.828-0.593h-2.25v9.775zM43.009 11.241c-0.008 0-0.018 0-0.028 0-0.273 0-0.521-0.106-0.705-0.28l0.001 0c-0.173-0.184-0.28-0.432-0.28-0.705 0-0.010 0-0.020 0-0.030l-0 0.001c0-0.279 0.093-0.512 0.279-0.698 0.184-0.173 0.432-0.28 0.705-0.28 0.010 0 0.020 0 0.030 0l-0.001-0c0.279 0 0.518 0.093 0.716 0.279 0.183 0.169 0.297 0.409 0.297 0.677 0 0.008-0 0.015-0 0.023l0-0.001c0 0.291-0.099 0.535-0.297 0.733-0.18 0.173-0.426 0.279-0.696 0.279-0.007 0-0.014-0-0.021-0l0.001 0zM42.276 21.818v-8.657h1.466v8.657h-1.466zM50.188 22.028c-0.826 0-1.559-0.186-2.199-0.559-0.641-0.389-1.156-0.927-1.508-1.567l-0.011-0.022c-0.361-0.675-0.541-1.472-0.541-2.391 0-0.908 0.18-1.699 0.541-2.374 0.346-0.668 0.858-1.209 1.483-1.579l0.018-0.010c0.652-0.384 1.402-0.576 2.252-0.576 0.838 0 1.559 0.192 2.164 0.576 0.617 0.372 1.088 0.867 1.414 1.484 0.309 0.57 0.491 1.249 0.491 1.969 0 0.142-0.007 0.283-0.021 0.422l0.001-0.018v0.436h-6.895c0.035 0.663 0.186 1.216 0.454 1.658 0.279 0.431 0.623 0.756 1.030 0.977 0.419 0.221 0.861 0.332 1.327 0.332 0.605 0 1.111-0.14 1.519-0.419s0.704-0.657 0.89-1.135h1.449c-0.238 0.816-0.709 1.502-1.336 2.001l-0.008 0.006c-0.652 0.524-1.489 0.785-2.513 0.785zM50.188 14.191c-0.698 0-1.321 0.215-1.868 0.646-0.535 0.419-0.844 1.036-0.925 1.85h5.446c-0.035-0.78-0.303-1.391-0.803-1.833s-1.117-0.663-1.85-0.663zM59.364 21.818c-0.791 0-1.414-0.192-1.868-0.576s-0.681-1.076-0.681-2.077v-4.765h-1.501v-1.239h1.501l0.192-2.077h1.274v2.077h2.548v1.239h-2.548v4.765c0 0.547 0.111 0.919 0.332 1.117 0.221 0.186 0.611 0.279 1.169 0.279h0.908v1.257h-1.327z"></path>
</symbol>
</defs>
</svg>
